<svg width="340" height="72" viewBox="0 0 340 72" fill="none" xmlns="http://www.w3.org/2000/svg">
<path d="M0 19.4564C0 8.71091 8.71091 0 19.4564 0H320.544C331.289 0 340 8.71091 340 19.4564V51.5594C340 62.3048 331.289 71.0157 320.544 71.0157H19.4564C8.71092 71.0157 0 62.3048 0 51.5594V19.4564Z" fill="#BE5944"/>
<path fill-rule="evenodd" clip-rule="evenodd" d="M23.6515 8.76454H15.3825C11.7345 8.76454 11.7345 15.3311 15.3825 15.3311H21.9491C24.5432 25.3835 29.8289 45.8776 30.218 47.4341C30.6071 48.9906 32.3258 49.5418 33.1365 49.6229C43.5943 49.704 64.9476 49.8175 66.6987 49.6229C68.4498 49.4284 69.3739 47.2719 69.6171 46.2181C71.5628 39.1651 75.5027 24.281 75.6973 21.168C75.8918 18.055 73.1842 17.4388 71.806 17.5199H29.2452C28.9209 16.466 28.1265 13.7746 27.5428 11.4398C26.9591 9.10503 24.7054 8.68347 23.6515 8.76454ZM55.7062 30.8882L45.2484 25.0513C43.4973 24.273 43.2217 25.5377 43.3028 26.2673C44.0324 29.9154 45.5889 37.4547 45.978 38.4275C46.3672 39.4004 47.194 39.1572 47.9237 38.4275L49.3829 36.7251C50.4368 38.2654 52.6905 41.4919 53.2742 42.0756C53.8579 42.6593 54.4902 42.481 54.7334 42.3188C54.9496 42.1567 55.1946 41.9837 55.4396 41.8108C55.9296 41.4649 56.4196 41.119 56.679 40.8596C57.1654 40.3732 57.6518 39.6436 57.1654 38.914L53.2742 34.0499C53.307 34.0279 53.3461 34.0004 53.3926 33.9677L53.3928 33.9675C53.6898 33.7582 54.2856 33.3385 55.463 32.8338C56.8249 32.2502 56.679 31.6178 55.7062 30.8882ZM43.2903 58.1259C43.2903 61.2152 40.7859 63.7196 37.6966 63.7196C34.6073 63.7196 32.1029 61.2152 32.1029 58.1259C32.1029 55.0366 34.6073 52.5322 37.6966 52.5322C40.7859 52.5322 43.2903 55.0366 43.2903 58.1259ZM65.665 58.1259C65.665 61.2152 63.1606 63.7196 60.0713 63.7196C56.982 63.7196 54.4776 61.2152 54.4776 58.1259C54.4776 55.0366 56.982 52.5322 60.0713 52.5322C63.1606 52.5322 65.665 55.0366 65.665 58.1259Z" fill="#FFE600"/>
<line x1="97.3224" y1="6.3233" x2="97.3224" y2="65.6652" stroke="#FFE600" stroke-width="3"/>
<path d="M115.996 52.0457C115.842 52.0457 115.765 51.9688 115.765 51.8151L115.858 20.1272C115.858 20.0042 115.919 19.9427 116.042 19.9427H130.802C130.956 19.9427 131.032 20.0042 131.032 20.1272V25.3393C131.032 25.4623 130.971 25.5238 130.848 25.5238H121.392V32.6732H130.848C130.971 32.6732 131.032 32.7501 131.032 32.9038L131.079 38.1159C131.079 38.2389 131.002 38.3004 130.848 38.3004H121.392V51.8151C121.392 51.9688 121.316 52.0457 121.162 52.0457H115.996Z" fill="#FFE600"/>
<path d="M135.814 52.0457C135.691 52.0457 135.629 51.9688 135.629 51.8151L135.722 20.1272C135.722 20.0042 135.783 19.9427 135.906 19.9427H145.223C146.884 19.9427 148.406 20.3578 149.79 21.1881C151.204 21.9876 152.326 23.0792 153.157 24.4629C153.987 25.8159 154.402 27.3534 154.402 29.0754C154.402 30.2132 154.233 31.2433 153.895 32.1658C153.556 33.0576 153.157 33.8263 152.695 34.4721C152.234 35.0871 151.819 35.5483 151.45 35.8558C153.111 37.7008 153.941 39.8687 153.941 42.3594L153.987 51.8151C153.987 51.9688 153.91 52.0457 153.756 52.0457H148.544C148.421 52.0457 148.36 51.9996 148.36 51.9073V42.3594C148.36 41.2524 147.96 40.2992 147.161 39.4997C146.392 38.6694 145.439 38.2543 144.301 38.2543H141.257L141.21 51.8151C141.21 51.9688 141.149 52.0457 141.026 52.0457H135.814ZM141.257 32.7193H145.223C146.177 32.7193 147.022 32.3657 147.76 31.6584C148.498 30.9512 148.867 30.0902 148.867 29.0754C148.867 28.0914 148.498 27.2458 147.76 26.5386C147.053 25.8313 146.207 25.4777 145.223 25.4777H141.257V32.7193Z" fill="#FFE600"/>
<path d="M158.065 52.0457C157.942 52.0457 157.881 51.9688 157.881 51.8151L157.927 20.1272C157.927 20.0042 157.988 19.9427 158.111 19.9427H172.917C173.04 19.9427 173.102 20.0196 173.102 20.1733V25.3393C173.102 25.4623 173.04 25.5238 172.917 25.5238H163.462V32.7193H172.917C173.04 32.7193 173.102 32.7808 173.102 32.9038L173.148 38.1159C173.148 38.2389 173.087 38.3004 172.964 38.3004H163.462V46.3723H172.964C173.087 46.3723 173.148 46.4492 173.148 46.6029V51.8612C173.148 51.9842 173.087 52.0457 172.964 52.0457H158.065Z" fill="#FFE600"/>
<path d="M177.434 52.0457C177.311 52.0457 177.25 51.9688 177.25 51.8151L177.296 20.1272C177.296 20.0042 177.357 19.9427 177.48 19.9427H192.286C192.409 19.9427 192.471 20.0196 192.471 20.1733V25.3393C192.471 25.4623 192.409 25.5238 192.286 25.5238H182.831V32.7193H192.286C192.409 32.7193 192.471 32.7808 192.471 32.9038L192.517 38.1159C192.517 38.2389 192.455 38.3004 192.332 38.3004H182.831V46.3723H192.332C192.455 46.3723 192.517 46.4492 192.517 46.6029V51.8612C192.517 51.9842 192.455 52.0457 192.332 52.0457H177.434Z" fill="#FFE600"/>
<path d="M203.649 52.0457C203.526 52.0457 203.465 51.9688 203.465 51.8151L203.557 20.1272C203.557 20.0042 203.619 19.9427 203.742 19.9427H209.369C209.492 19.9427 209.599 20.0042 209.692 20.1272L213.889 26.2157L218.086 20.1272C218.178 20.0042 218.286 19.9427 218.409 19.9427H224.082C224.205 19.9427 224.267 20.0042 224.267 20.1272L224.359 51.8151C224.359 51.9688 224.298 52.0457 224.175 52.0457H218.963C218.84 52.0457 218.778 51.9688 218.778 51.8151L218.732 28.2913L213.889 35.3023L209.092 28.2913L209.046 51.8151C209.046 51.9688 208.984 52.0457 208.861 52.0457H203.649Z" fill="#FFE600"/>
<path d="M226.67 51.8151L232.39 20.1272C232.421 20.0042 232.497 19.9427 232.62 19.9427H239.309C239.431 19.9427 239.508 20.0042 239.539 20.1272L245.028 51.8151C245.059 51.9688 244.997 52.0457 244.843 52.0457H239.724C239.601 52.0457 239.524 51.9688 239.493 51.8151L238.986 48.4479H232.713L232.205 51.8151C232.175 51.9688 232.098 52.0457 231.975 52.0457H226.855C226.732 52.0457 226.67 51.9688 226.67 51.8151ZM233.635 43.5126H238.063L236.172 30.5514L235.895 28.8448L235.711 30.5514L233.635 43.5126Z" fill="#FFE600"/>
<path d="M248.107 52.0457C247.984 52.0457 247.923 51.9688 247.923 51.8151L248.015 20.1272C248.015 20.0042 248.076 19.9427 248.199 19.9427H257.516C259.177 19.9427 260.699 20.3578 262.083 21.1881C263.497 21.9876 264.62 23.0792 265.45 24.4629C266.28 25.8159 266.695 27.3534 266.695 29.0754C266.695 30.2132 266.526 31.2433 266.188 32.1658C265.85 33.0576 265.45 33.8263 264.989 34.4721C264.527 35.0871 264.112 35.5483 263.743 35.8558C265.404 37.7008 266.234 39.8687 266.234 42.3594L266.28 51.8151C266.28 51.9688 266.203 52.0457 266.05 52.0457H260.837C260.714 52.0457 260.653 51.9996 260.653 51.9073V42.3594C260.653 41.2524 260.253 40.2992 259.454 39.4997C258.685 38.6694 257.732 38.2543 256.594 38.2543H253.55L253.504 51.8151C253.504 51.9688 253.442 52.0457 253.319 52.0457H248.107ZM253.55 32.7193H257.516C258.47 32.7193 259.315 32.3657 260.053 31.6584C260.791 30.9512 261.16 30.0902 261.16 29.0754C261.16 28.0914 260.791 27.2458 260.053 26.5386C259.346 25.8313 258.5 25.4777 257.516 25.4777H253.55V32.7193Z" fill="#FFE600"/>
<path d="M270.359 52.0457C270.236 52.0457 270.174 51.9688 270.174 51.8151L270.266 20.1733C270.266 20.0196 270.328 19.9427 270.451 19.9427H275.617C275.74 19.9427 275.801 20.0196 275.801 20.1733V31.1049L283.043 20.1272C283.135 20.0042 283.243 19.9427 283.366 19.9427H288.67C288.793 19.9427 288.824 20.0042 288.762 20.1272L280.783 32.8577L289.731 51.8612C289.792 51.9842 289.715 52.0457 289.5 52.0457H283.873C283.719 52.0457 283.627 51.9842 283.596 51.8612L277.369 38.3004L275.755 40.8373V51.8151C275.755 51.9688 275.694 52.0457 275.571 52.0457H270.359Z" fill="#FFE600"/>
<path d="M291.979 52.0457C291.856 52.0457 291.795 51.9688 291.795 51.8151L291.841 20.1272C291.841 20.0042 291.902 19.9427 292.025 19.9427H306.831C306.954 19.9427 307.016 20.0196 307.016 20.1733V25.3393C307.016 25.4623 306.954 25.5238 306.831 25.5238H297.376V32.7193H306.831C306.954 32.7193 307.016 32.7808 307.016 32.9038L307.062 38.1159C307.062 38.2389 307.001 38.3004 306.878 38.3004H297.376V46.3723H306.878C307.001 46.3723 307.062 46.4492 307.062 46.6029V51.8612C307.062 51.9842 307.001 52.0457 306.878 52.0457H291.979Z" fill="#FFE600"/>
<path d="M315.776 52.0457C315.653 52.0457 315.591 51.9688 315.591 51.8151V25.5238H309.595C309.442 25.5238 309.365 25.4469 309.365 25.2932L309.411 20.1272C309.411 20.0042 309.472 19.9427 309.595 19.9427H327.123C327.276 19.9427 327.353 20.0042 327.353 20.1272V25.2932C327.353 25.4469 327.292 25.5238 327.169 25.5238H321.126L321.173 51.8151C321.173 51.9688 321.111 52.0457 320.988 52.0457H315.776Z" fill="#FFE600"/>
</svg>
