<svg width="307" height="64" viewBox="0 0 307 64" fill="none" xmlns="http://www.w3.org/2000/svg">
<path d="M0 17.5342C0 7.85035 7.85035 0 17.5342 0H288.877C298.561 0 306.411 7.85035 306.411 17.5342V46.4657C306.411 56.1496 298.561 64 288.877 64H17.5343C7.85036 64 0 56.1496 0 46.4658V17.5342Z" fill="#1891E9"/>
<path fill-rule="evenodd" clip-rule="evenodd" d="M21.3149 7.89864H13.8628C10.5752 7.89864 10.5752 13.8165 13.8628 13.8165H19.7807C22.1186 22.8758 26.882 41.3452 27.2327 42.748C27.5834 44.1507 29.1322 44.6475 29.8628 44.7206C39.2875 44.7936 58.5313 44.8959 60.1094 44.7206C61.6875 44.5452 62.5204 42.6018 62.7396 41.6521C64.493 35.2959 68.0437 21.8822 68.219 19.0767C68.3943 16.2713 65.9542 15.716 64.7122 15.7891H26.356C26.0638 14.8393 25.3478 12.4137 24.8217 10.3096C24.2957 8.20549 22.2647 7.82559 21.3149 7.89864ZM50.2029 27.8367L40.7783 22.5764C39.2002 21.875 38.9518 23.0148 39.0248 23.6723C39.6824 26.96 41.0851 33.7545 41.4358 34.6312C41.7865 35.5079 42.5317 35.2887 43.1892 34.6312L44.5043 33.097C45.4541 34.4851 47.4851 37.3928 48.0111 37.9189C48.5372 38.4449 49.107 38.2842 49.3262 38.1381C49.521 37.9919 49.7419 37.8361 49.9627 37.6802C50.4043 37.3685 50.8458 37.0568 51.0796 36.823C51.518 36.3846 51.9563 35.7271 51.518 35.0696L48.0111 30.686C48.0408 30.6663 48.076 30.6414 48.1178 30.612L48.1181 30.6118C48.3857 30.4232 48.9226 30.0449 49.9837 29.5901C51.2111 29.0641 51.0796 28.4942 50.2029 27.8367ZM39.0136 52.3835C39.0136 55.1676 36.7566 57.4246 33.9725 57.4246C31.1883 57.4246 28.9314 55.1676 28.9314 52.3835C28.9314 49.5994 31.1883 47.3424 33.9725 47.3424C36.7566 47.3424 39.0136 49.5994 39.0136 52.3835ZM59.1779 52.3835C59.1779 55.1676 56.921 57.4246 54.1368 57.4246C51.3527 57.4246 49.0957 55.1676 49.0957 52.3835C49.0957 49.5994 51.3527 47.3424 54.1368 47.3424C56.921 47.3424 59.1779 49.5994 59.1779 52.3835Z" fill="#FFE600"/>
<line x1="87.8561" y1="5.69861" x2="87.8561" y2="59.1781" stroke="#FFE600" stroke-width="3"/>
<path d="M104.536 46.904C104.398 46.904 104.329 46.8348 104.329 46.6962L104.412 18.1388C104.412 18.028 104.467 17.9725 104.578 17.9725H117.88C118.018 17.9725 118.088 18.028 118.088 18.1388V22.836C118.088 22.9469 118.032 23.0023 117.921 23.0023H109.4V29.4454H117.921C118.032 29.4454 118.088 29.5147 118.088 29.6532L118.129 34.3504C118.129 34.4613 118.06 34.5167 117.921 34.5167H109.4V46.6962C109.4 46.8348 109.331 46.904 109.192 46.904H104.536Z" fill="#FFE600"/>
<path d="M122.397 46.904C122.286 46.904 122.23 46.8348 122.23 46.6962L122.313 18.1388C122.313 18.028 122.369 17.9725 122.48 17.9725H130.876C132.373 17.9725 133.745 18.3466 134.992 19.0949C136.266 19.8154 137.278 20.7992 138.026 22.0462C138.774 23.2656 139.148 24.6512 139.148 26.203C139.148 27.2284 138.996 28.1568 138.691 28.9881C138.386 29.7918 138.026 30.4846 137.61 31.0665C137.195 31.6208 136.821 32.0365 136.488 32.3136C137.985 33.9763 138.733 35.93 138.733 38.1747L138.774 46.6962C138.774 46.8348 138.705 46.904 138.566 46.904H133.869C133.758 46.904 133.703 46.8625 133.703 46.7793V38.1747C133.703 37.1771 133.343 36.318 132.622 35.5975C131.929 34.8492 131.07 34.4751 130.045 34.4751H127.302L127.26 46.6962C127.26 46.8348 127.205 46.904 127.094 46.904H122.397ZM127.302 29.4869H130.876C131.736 29.4869 132.498 29.1682 133.163 28.5309C133.828 27.8935 134.16 27.1175 134.16 26.203C134.16 25.3163 133.828 24.5542 133.163 23.9168C132.525 23.2794 131.763 22.9607 130.876 22.9607H127.302V29.4869Z" fill="#FFE600"/>
<path d="M142.45 46.904C142.339 46.904 142.284 46.8348 142.284 46.6962L142.325 18.1388C142.325 18.028 142.381 17.9725 142.491 17.9725H155.835C155.945 17.9725 156.001 18.0418 156.001 18.1804V22.836C156.001 22.9469 155.945 23.0023 155.835 23.0023H147.313V29.4869H155.835C155.945 29.4869 156.001 29.5424 156.001 29.6532L156.042 34.3504C156.042 34.4613 155.987 34.5167 155.876 34.5167H147.313V41.7911H155.876C155.987 41.7911 156.042 41.8604 156.042 41.999V46.7378C156.042 46.8486 155.987 46.904 155.876 46.904H142.45Z" fill="#FFE600"/>
<path d="M159.905 46.904C159.794 46.904 159.739 46.8348 159.739 46.6962L159.78 18.1388C159.78 18.028 159.836 17.9725 159.947 17.9725H173.29C173.401 17.9725 173.456 18.0418 173.456 18.1804V22.836C173.456 22.9469 173.401 23.0023 173.29 23.0023H164.768V29.4869H173.29C173.401 29.4869 173.456 29.5424 173.456 29.6532L173.498 34.3504C173.498 34.4613 173.442 34.5167 173.331 34.5167H164.768V41.7911H173.331C173.442 41.7911 173.498 41.8604 173.498 41.999V46.7378C173.498 46.8486 173.442 46.904 173.331 46.904H159.905Z" fill="#FFE600"/>
<path d="M183.53 46.904C183.42 46.904 183.364 46.8348 183.364 46.6962L183.447 18.1388C183.447 18.028 183.503 17.9725 183.614 17.9725H188.685C188.796 17.9725 188.893 18.028 188.976 18.1388L192.758 23.6258L196.541 18.1388C196.624 18.028 196.721 17.9725 196.832 17.9725H201.945C202.056 17.9725 202.111 18.028 202.111 18.1388L202.194 46.6962C202.194 46.8348 202.139 46.904 202.028 46.904H197.331C197.22 46.904 197.165 46.8348 197.165 46.6962L197.123 25.4964L192.758 31.8148L188.435 25.4964L188.394 46.6962C188.394 46.8348 188.338 46.904 188.228 46.904H183.53Z" fill="#FFE600"/>
<path d="M204.277 46.6962L209.432 18.1388C209.459 18.028 209.529 17.9725 209.64 17.9725H215.667C215.778 17.9725 215.847 18.028 215.875 18.1388L220.821 46.6962C220.849 46.8348 220.794 46.904 220.655 46.904H216.041C215.93 46.904 215.861 46.8348 215.833 46.6962L215.376 43.6617H209.723L209.265 46.6962C209.238 46.8348 209.168 46.904 209.058 46.904H204.444C204.333 46.904 204.277 46.8348 204.277 46.6962ZM210.554 39.2139H214.545L212.84 27.5332L212.591 25.9952L212.425 27.5332L210.554 39.2139Z" fill="#FFE600"/>
<path d="M223.596 46.904C223.485 46.904 223.43 46.8348 223.43 46.6962L223.513 18.1388C223.513 18.028 223.569 17.9725 223.679 17.9725H232.076C233.572 17.9725 234.944 18.3466 236.191 19.0949C237.466 19.8154 238.477 20.7992 239.226 22.0462C239.974 23.2656 240.348 24.6512 240.348 26.203C240.348 27.2284 240.196 28.1568 239.891 28.9881C239.586 29.7918 239.226 30.4846 238.81 31.0665C238.394 31.6208 238.02 32.0365 237.688 32.3136C239.184 33.9763 239.932 35.93 239.932 38.1747L239.974 46.6962C239.974 46.8348 239.905 46.904 239.766 46.904H235.069C234.958 46.904 234.903 46.8625 234.903 46.7793V38.1747C234.903 37.1771 234.542 36.318 233.822 35.5975C233.129 34.8492 232.27 34.4751 231.245 34.4751H228.501L228.46 46.6962C228.46 46.8348 228.404 46.904 228.293 46.904H223.596ZM228.501 29.4869H232.076C232.935 29.4869 233.697 29.1682 234.362 28.5309C235.027 27.8935 235.36 27.1175 235.36 26.203C235.36 25.3163 235.027 24.5542 234.362 23.9168C233.725 23.2794 232.963 22.9607 232.076 22.9607H228.501V29.4869Z" fill="#FFE600"/>
<path d="M243.649 46.904C243.539 46.904 243.483 46.8348 243.483 46.6962L243.566 18.1804C243.566 18.0418 243.622 17.9725 243.733 17.9725H248.388C248.499 17.9725 248.554 18.0418 248.554 18.1804V28.0321L255.081 18.1388C255.164 18.028 255.261 17.9725 255.372 17.9725H260.152C260.263 17.9725 260.29 18.028 260.235 18.1388L253.044 29.6116L261.108 46.7378C261.163 46.8486 261.094 46.904 260.9 46.904H255.829C255.69 46.904 255.607 46.8486 255.579 46.7378L249.968 34.5167L248.513 36.803V46.6962C248.513 46.8348 248.457 46.904 248.347 46.904H243.649Z" fill="#FFE600"/>
<path d="M263.134 46.904C263.023 46.904 262.968 46.8348 262.968 46.6962L263.01 18.1388C263.01 18.028 263.065 17.9725 263.176 17.9725H276.519C276.63 17.9725 276.685 18.0418 276.685 18.1804V22.836C276.685 22.9469 276.63 23.0023 276.519 23.0023H267.998V29.4869H276.519C276.63 29.4869 276.685 29.5424 276.685 29.6532L276.727 34.3504C276.727 34.4613 276.672 34.5167 276.561 34.5167H267.998V41.7911H276.561C276.672 41.7911 276.727 41.8604 276.727 41.999V46.7378C276.727 46.8486 276.672 46.904 276.561 46.904H263.134Z" fill="#FFE600"/>
<path d="M284.58 46.904C284.469 46.904 284.414 46.8348 284.414 46.6962V23.0023H279.01C278.871 23.0023 278.802 22.933 278.802 22.7945L278.844 18.1388C278.844 18.028 278.899 17.9725 279.01 17.9725H294.806C294.944 17.9725 295.014 18.028 295.014 18.1388V22.7945C295.014 22.933 294.958 23.0023 294.847 23.0023H289.402L289.443 46.6962C289.443 46.8348 289.388 46.904 289.277 46.904H284.58Z" fill="#FFE600"/>
</svg>
