<svg width="178" height="178" viewBox="0 0 178 178" fill="none" xmlns="http://www.w3.org/2000/svg">
<circle cx="89" cy="89" r="89" fill="#BE5944"/>
<path fill-rule="evenodd" clip-rule="evenodd" d="M45.625 40.0188H28.625C21.125 40.0188 21.125 53.5189 28.625 53.5189H42.125C47.4583 74.1855 58.325 116.319 59.125 119.519C59.925 122.719 63.4583 123.852 65.125 124.019C86.625 124.186 130.525 124.419 134.125 124.019C137.725 123.619 139.625 119.186 140.125 117.019C144.125 102.519 152.225 71.9189 152.625 65.5189C153.025 59.1189 147.458 57.8522 144.625 58.0189H57.125C56.4583 55.8522 54.825 50.3188 53.625 45.5188C52.425 40.7188 47.7917 39.8522 45.625 40.0188ZM111.526 85.5026L90.0257 73.5026C86.4257 71.9026 85.859 74.5026 86.0257 76.0026C87.5257 83.5026 90.7257 99.0026 91.5257 101.003C92.3257 103.003 94.0257 102.503 95.5257 101.003L98.5257 97.5026C100.692 100.669 105.326 107.303 106.526 108.503C107.726 109.703 109.026 109.336 109.526 109.003C109.97 108.669 110.474 108.314 110.978 107.958C111.985 107.247 112.992 106.536 113.526 106.003C114.526 105.003 115.526 103.503 114.526 102.003L106.526 92.0026C106.593 91.9575 106.674 91.9009 106.769 91.8336L106.77 91.8333C107.38 91.4031 108.605 90.5401 111.026 89.5026C113.826 88.3026 113.526 87.0026 111.526 85.5026ZM86 141.5C86 147.851 80.8513 153 74.5 153C68.1487 153 63 147.851 63 141.5C63 135.149 68.1487 130 74.5 130C80.8513 130 86 135.149 86 141.5ZM132 141.5C132 147.851 126.851 153 120.5 153C114.149 153 109 147.851 109 141.5C109 135.149 114.149 130 120.5 130C126.851 130 132 135.149 132 141.5Z" fill="#FFE600"/>
</svg>
