<svg width="44" height="44" viewBox="0 0 44 44" fill="none" xmlns="http://www.w3.org/2000/svg">
<circle cx="22" cy="22" r="22" fill="#9CDF58"/>
<path fill-rule="evenodd" clip-rule="evenodd" d="M6.27992 11.5282H10.2201C10.7223 11.4895 11.7961 11.6904 12.0743 12.8029C12.3524 13.9154 12.731 15.1979 12.8855 15.7001H33.1657C33.8224 15.6615 35.1126 15.9551 35.0199 17.4384C34.9272 18.9218 33.0498 26.0141 32.1227 29.3748C32.0069 29.877 31.5665 30.9045 30.7321 30.9972C29.8977 31.0899 19.7228 31.0358 14.7397 30.9972C14.3534 30.9586 13.5345 30.6959 13.349 29.9542C13.1636 29.2125 10.645 19.4471 9.40888 14.6571H6.27992C4.54162 14.6571 4.54162 11.5282 6.27992 11.5282ZM16.9125 37.7142C18.3846 37.7142 19.5779 36.5209 19.5779 35.0488C19.5779 33.5768 18.3846 32.3834 16.9125 32.3834C15.4405 32.3834 14.2471 33.5768 14.2471 35.0488C14.2471 36.5209 15.4405 37.7142 16.9125 37.7142ZM27.5742 37.7142C29.0462 37.7142 30.2396 36.5209 30.2396 35.0488C30.2396 33.5768 29.0462 32.3834 27.5742 32.3834C26.1021 32.3834 24.9088 33.5768 24.9088 35.0488C24.9088 36.5209 26.1021 37.7142 27.5742 37.7142Z" fill="white"/>
<circle cx="31.3704" cy="14.2593" r="7.74074" fill="white"/>
<path d="M27.5828 13.5584C27.1996 13.5584 26.8889 13.8691 26.8889 14.2523C26.8889 14.6356 27.1996 14.9463 27.5828 14.9463H30.6695V18.0469C30.6695 18.4301 30.9802 18.7408 31.3634 18.7408C31.7467 18.7408 32.0573 18.4301 32.0573 18.0469V14.9463H35.158C35.5412 14.9463 35.8519 14.6356 35.8519 14.2523C35.8519 13.8691 35.5412 13.5584 35.158 13.5584H32.0573V10.4717C32.0573 10.0885 31.7467 9.77783 31.3634 9.77783C30.9802 9.77783 30.6695 10.0885 30.6695 10.4717V13.5584L27.5828 13.5584Z" fill="#9CDF58"/>
<path d="M26.8889 14.2523H26.3889H26.8889ZM27.5828 13.5584L27.5828 14.0584L27.5828 13.5584ZM27.5828 14.9463V14.4463V14.9463ZM30.6695 14.9463H31.1695V14.4463H30.6695V14.9463ZM30.6695 18.0469H30.1695H30.6695ZM31.3634 18.7408V19.2408V18.7408ZM32.0573 14.9463V14.4463H31.5573V14.9463H32.0573ZM32.0573 13.5584H31.5573V14.0584H32.0573V13.5584ZM31.3634 9.77783V9.27783V9.77783ZM30.6695 10.4717H30.1695H30.6695ZM30.6695 13.5584V14.0584H31.1695V13.5584H30.6695ZM27.3889 14.2523C27.3889 14.1452 27.4757 14.0584 27.5828 14.0584L27.5828 13.0584C26.9235 13.0584 26.3889 13.593 26.3889 14.2523H27.3889ZM27.5828 14.4463C27.4757 14.4463 27.3889 14.3594 27.3889 14.2523H26.3889C26.3889 14.9117 26.9235 15.4463 27.5828 15.4463L27.5828 14.4463ZM30.6695 14.4463H27.5828V15.4463H30.6695V14.4463ZM31.1695 18.0469V14.9463H30.1695V18.0469H31.1695ZM31.3634 18.2408C31.2563 18.2408 31.1695 18.154 31.1695 18.0469H30.1695C30.1695 18.7063 30.704 19.2408 31.3634 19.2408V18.2408ZM31.5573 18.0469C31.5573 18.154 31.4705 18.2408 31.3634 18.2408V19.2408C32.0228 19.2408 32.5573 18.7063 32.5573 18.0469H31.5573ZM31.5573 14.9463V18.0469H32.5573V14.9463H31.5573ZM35.158 14.4463H32.0573V15.4463H35.158V14.4463ZM35.3519 14.2523C35.3519 14.3594 35.2651 14.4463 35.158 14.4463V15.4463C35.8173 15.4463 36.3519 14.9117 36.3519 14.2523H35.3519ZM35.158 14.0584C35.2651 14.0584 35.3519 14.1452 35.3519 14.2523H36.3519C36.3519 13.593 35.8173 13.0584 35.158 13.0584V14.0584ZM32.0573 14.0584H35.158V13.0584H32.0573V14.0584ZM31.5573 10.4717V13.5584H32.5573V10.4717H31.5573ZM31.3634 10.2778C31.4705 10.2778 31.5573 10.3647 31.5573 10.4717H32.5573C32.5573 9.81237 32.0228 9.27783 31.3634 9.27783V10.2778ZM31.1695 10.4717C31.1695 10.3647 31.2563 10.2778 31.3634 10.2778V9.27783C30.704 9.27783 30.1695 9.81237 30.1695 10.4717L31.1695 10.4717ZM31.1695 13.5584V10.4717H30.1695V13.5584H31.1695ZM27.5828 14.0584L30.6695 14.0584V13.0584L27.5828 13.0584L27.5828 14.0584Z" fill="#9CDF58"/>
</svg>
