<svg width="44" height="44" viewBox="0 0 44 44" fill="none" xmlns="http://www.w3.org/2000/svg">
<circle cx="22" cy="22" r="22" fill="#CEFBA1"/>
<path fill-rule="evenodd" clip-rule="evenodd" d="M6.27995 11.5281H10.2201C10.7223 11.4895 11.7962 11.6904 12.0743 12.8029C12.3524 13.9154 12.731 15.1979 12.8855 15.7001H33.1657C33.8224 15.6614 35.1126 15.955 35.0199 17.4384C34.9272 18.9217 33.0499 26.014 32.1228 29.3748C32.0069 29.8769 31.5665 30.9045 30.7321 30.9972C29.8977 31.0899 19.7228 31.0358 14.7397 30.9972C14.3534 30.9585 13.5345 30.6959 13.3491 29.9542C13.1636 29.2125 10.645 19.4471 9.4089 14.6571H6.27995C4.54164 14.6571 4.54164 11.5281 6.27995 11.5281ZM16.9126 37.7142C18.3846 37.7142 19.578 36.5209 19.578 35.0488C19.578 33.5767 18.3846 32.3834 16.9126 32.3834C15.4405 32.3834 14.2472 33.5767 14.2472 35.0488C14.2472 36.5209 15.4405 37.7142 16.9126 37.7142ZM27.5742 37.7142C29.0463 37.7142 30.2396 36.5209 30.2396 35.0488C30.2396 33.5767 29.0463 32.3834 27.5742 32.3834C26.1021 32.3834 24.9088 33.5767 24.9088 35.0488C24.9088 36.5209 26.1021 37.7142 27.5742 37.7142Z" fill="white"/>
<circle cx="31.3704" cy="14.2593" r="7.74074" fill="white"/>
<path d="M27.5828 13.5584C27.1996 13.5584 26.8889 13.869 26.8889 14.2523C26.8889 14.6355 27.1996 14.9462 27.5828 14.9462H30.6695V18.0468C30.6695 18.4301 30.9802 18.7407 31.3634 18.7407C31.7466 18.7407 32.0573 18.4301 32.0573 18.0468V14.9462H35.1579C35.5412 14.9462 35.8519 14.6355 35.8519 14.2523C35.8519 13.869 35.5412 13.5584 35.1579 13.5584H32.0573V10.4717C32.0573 10.0884 31.7466 9.77777 31.3634 9.77777C30.9802 9.77777 30.6695 10.0884 30.6695 10.4717V13.5584L27.5828 13.5584Z" fill="#CEFBA1"/>
<path d="M26.8889 14.2523L26.3889 14.2523L26.8889 14.2523ZM27.5828 13.5584L27.5828 14.0584L27.5828 14.0584L27.5828 13.5584ZM27.5828 14.9462L27.5828 14.4462L27.5828 14.9462ZM30.6695 14.9462H31.1695V14.4462H30.6695V14.9462ZM30.6695 18.0468L30.1695 18.0468V18.0468L30.6695 18.0468ZM31.3634 18.7407L31.3634 19.2407H31.3634V18.7407ZM32.0573 14.9462V14.4462H31.5573V14.9462H32.0573ZM32.0573 13.5584H31.5573V14.0584H32.0573V13.5584ZM31.3634 9.77777L31.3634 9.27777H31.3634L31.3634 9.77777ZM30.6695 10.4717L30.1695 10.4717V10.4717H30.6695ZM30.6695 13.5584L30.6695 14.0584L31.1695 14.0584V13.5584H30.6695ZM27.3889 14.2523C27.3889 14.1452 27.4757 14.0584 27.5828 14.0584L27.5828 13.0584C26.9234 13.0584 26.3889 13.5929 26.3889 14.2523L27.3889 14.2523ZM27.5828 14.4462C27.4757 14.4462 27.3889 14.3594 27.3889 14.2523L26.3889 14.2523C26.3889 14.9117 26.9234 15.4462 27.5828 15.4462L27.5828 14.4462ZM30.6695 14.4462H27.5828V15.4462H30.6695V14.4462ZM31.1695 18.0468V14.9462H30.1695V18.0468H31.1695ZM31.3634 18.2407C31.2563 18.2407 31.1695 18.1539 31.1695 18.0468L30.1695 18.0468C30.1695 18.7062 30.704 19.2407 31.3634 19.2407L31.3634 18.2407ZM31.5573 18.0468C31.5573 18.1539 31.4705 18.2407 31.3634 18.2407V19.2407C32.0228 19.2407 32.5573 18.7062 32.5573 18.0468H31.5573ZM31.5573 14.9462V18.0468H32.5573V14.9462H31.5573ZM35.1579 14.4462H32.0573V15.4462H35.1579V14.4462ZM35.3519 14.2523C35.3519 14.3594 35.265 14.4462 35.1579 14.4462V15.4462C35.8173 15.4462 36.3519 14.9117 36.3519 14.2523H35.3519ZM35.1579 14.0584C35.265 14.0584 35.3519 14.1452 35.3519 14.2523H36.3519C36.3519 13.5929 35.8173 13.0584 35.1579 13.0584V14.0584ZM32.0573 14.0584H35.1579V13.0584H32.0573V14.0584ZM31.5573 10.4717V13.5584H32.5573V10.4717H31.5573ZM31.3634 10.2778C31.4705 10.2778 31.5573 10.3646 31.5573 10.4717H32.5573C32.5573 9.81231 32.0228 9.27777 31.3634 9.27777V10.2778ZM31.1695 10.4717C31.1695 10.3646 31.2563 10.2778 31.3634 10.2778L31.3634 9.27777C30.704 9.27777 30.1695 9.81231 30.1695 10.4717L31.1695 10.4717ZM31.1695 13.5584V10.4717H30.1695V13.5584H31.1695ZM27.5828 14.0584L30.6695 14.0584L30.6695 13.0584L27.5828 13.0584L27.5828 14.0584Z" fill="#CEFBA1"/>
</svg>
