<svg width="19" height="12" viewBox="0 0 19 12" fill="none" xmlns="http://www.w3.org/2000/svg">
<path d="M9.60129 8.27165L2.3301 1.00045L1 2.33055L9.60174 10.9323L18.203 2.3301L16.8729 1L9.60129 8.27165Z" fill="#B1B1B1"/>
<path d="M2.3301 1.00045L2.68365 0.646901L2.3301 0.293348L1.97654 0.646901L2.3301 1.00045ZM9.60129 8.27165L9.24774 8.6252L9.60129 8.97876L9.95484 8.6252L9.60129 8.27165ZM1 2.33055L0.646447 1.977L0.292893 2.33055L0.646447 2.6841L1 2.33055ZM9.60174 10.9323L9.24819 11.2858L9.60176 11.6394L9.95532 11.2858L9.60174 10.9323ZM18.203 2.3301L18.5566 2.68363L18.9101 2.33008L18.5566 1.97654L18.203 2.3301ZM16.8729 1L17.2265 0.646447L16.8729 0.292893L16.5194 0.646447L16.8729 1ZM1.97654 1.35401L9.24774 8.6252L9.95484 7.9181L2.68365 0.646901L1.97654 1.35401ZM1.35355 2.6841L2.68365 1.35401L1.97654 0.646901L0.646447 1.977L1.35355 2.6841ZM16.5194 1.35355L17.8495 2.68365L18.5566 1.97654L17.2265 0.646447L16.5194 1.35355ZM9.95484 8.6252L17.2265 1.35355L16.5194 0.646447L9.24774 7.9181L9.95484 8.6252ZM9.9553 10.5787L1.35355 1.977L0.646447 2.6841L9.24819 11.2858L9.9553 10.5787ZM17.8495 1.97656L9.24817 10.5788L9.95532 11.2858L18.5566 2.68363L17.8495 1.97656Z" fill="#B1B1B1"/>
</svg>
