<svg width="39" height="34" viewBox="0 0 39 34" fill="none" xmlns="http://www.w3.org/2000/svg">
<mask id="path-1-inside-1_15_92" fill="white">
<path fill-rule="evenodd" clip-rule="evenodd" d="M1.67798 0.00562371H6.74921C7.39555 -0.0440943 8.77771 0.214439 9.13568 1.64632C9.49365 3.07819 9.98088 4.72883 10.1798 5.37517H36.2817C37.1269 5.32545 38.7875 5.70331 38.6682 7.61248C38.5488 9.52165 36.1325 18.6499 34.9393 22.9753C34.7902 23.6217 34.2234 24.9442 33.1495 25.0635C32.0756 25.1828 18.9798 25.1132 12.5662 25.0635C12.069 25.0138 11.015 24.6757 10.7764 23.7211C10.5377 22.7665 7.29611 10.1978 5.70514 4.03278H1.67798C-0.559326 4.03278 -0.559327 0.00562371 1.67798 0.00562371ZM15.3629 33.7088C17.2575 33.7088 18.7934 32.1729 18.7934 30.2783C18.7934 28.3836 17.2575 26.8477 15.3629 26.8477C13.4682 26.8477 11.9323 28.3836 11.9323 30.2783C11.9323 32.1729 13.4682 33.7088 15.3629 33.7088ZM29.085 33.7088C30.9797 33.7088 32.5156 32.1729 32.5156 30.2783C32.5156 28.3836 30.9797 26.8477 29.085 26.8477C27.1904 26.8477 25.6545 28.3836 25.6545 30.2783C25.6545 32.1729 27.1904 33.7088 29.085 33.7088Z"/>
</mask>
<path d="M6.74921 0.00562371V1.00562H6.78762L6.82591 1.00268L6.74921 0.00562371ZM9.13568 1.64632L10.1058 1.40378L9.13568 1.64632ZM10.1798 5.37517L9.22397 5.66925L9.44118 6.37517H10.1798V5.37517ZM36.2817 5.37517V6.37517H36.3111L36.3404 6.37344L36.2817 5.37517ZM34.9393 22.9753L33.9753 22.7094L33.9697 22.7298L33.9649 22.7505L34.9393 22.9753ZM33.1495 25.0635L33.039 24.0696L33.039 24.0696L33.1495 25.0635ZM12.5662 25.0635L12.4667 26.0585L12.5125 26.0631L12.5585 26.0635L12.5662 25.0635ZM10.7764 23.7211L9.80623 23.9636L9.80623 23.9636L10.7764 23.7211ZM5.70514 4.03278L6.67341 3.7829L6.47983 3.03278H5.70514V4.03278ZM6.74921 -0.994376H1.67798V1.00562H6.74921V-0.994376ZM10.1058 1.40378C9.84691 0.368138 9.19471 -0.272847 8.50062 -0.622637C7.84116 -0.954978 7.14662 -1.0279 6.67252 -0.991431L6.82591 1.00268C6.99814 0.989429 7.31785 1.02092 7.60054 1.16338C7.84861 1.2884 8.06648 1.49262 8.16553 1.88885L10.1058 1.40378ZM11.1355 5.08108C10.9395 4.44394 10.4578 2.81188 10.1058 1.40378L8.16553 1.88885C8.52945 3.34451 9.02227 5.01373 9.22397 5.66925L11.1355 5.08108ZM36.2817 4.37517H10.1798V6.37517H36.2817V4.37517ZM39.6662 7.67486C39.7482 6.36279 39.1919 5.44442 38.3794 4.91934C37.6436 4.44388 36.7873 4.3437 36.223 4.37689L36.3404 6.37344C36.6213 6.35692 37.0179 6.4208 37.2939 6.59914C37.4178 6.67922 37.509 6.77608 37.5707 6.89897C37.6323 7.02175 37.6906 7.22267 37.6701 7.5501L39.6662 7.67486ZM35.9033 23.2413C36.5013 21.0734 37.4058 17.7022 38.1764 14.6312C38.5615 13.0962 38.9147 11.6303 39.1797 10.4248C39.4383 9.2481 39.6307 8.24277 39.6662 7.67486L37.6701 7.5501C37.6459 7.93677 37.4916 8.7884 37.2263 9.99542C36.9674 11.1735 36.6195 12.618 36.2365 14.1444C35.4708 17.1962 34.5705 20.5518 33.9753 22.7094L35.9033 23.2413ZM33.2599 26.0574C34.2056 25.9523 34.8395 25.3273 35.2139 24.7855C35.5939 24.2354 35.8167 23.6206 35.9137 23.2002L33.9649 22.7505C33.9128 22.9764 33.7775 23.346 33.5685 23.6486C33.3537 23.9594 33.1672 24.0554 33.039 24.0696L33.2599 26.0574ZM12.5585 26.0635C15.7664 26.0883 20.6458 26.1182 24.8582 26.1269C26.964 26.1312 28.9054 26.1303 30.3886 26.1208C31.8316 26.1115 32.9246 26.0946 33.2599 26.0574L33.039 24.0696C32.8374 24.092 31.8907 24.1111 30.3758 24.1208C28.9011 24.1303 26.9663 24.1312 24.8623 24.1269C20.655 24.1182 15.7796 24.0884 12.574 24.0635L12.5585 26.0635ZM9.80623 23.9636C10.0093 24.7761 10.5569 25.292 11.0656 25.5925C11.5636 25.8868 12.0952 26.0214 12.4667 26.0585L12.6657 24.0684C12.5401 24.0559 12.2961 23.9966 12.0831 23.8707C11.8808 23.7512 11.782 23.6207 11.7465 23.4786L9.80623 23.9636ZM4.73686 4.28266C6.32888 10.4517 9.5688 23.0139 9.80623 23.9636L11.7465 23.4786C11.5066 22.5191 8.26335 9.94389 6.67341 3.7829L4.73686 4.28266ZM1.67798 5.03278H5.70514V3.03278H1.67798V5.03278ZM1.67798 -0.994376C0.777104 -0.994376 0.0690011 -0.571997 -0.384063 0.0396403C-0.815778 0.622457 -1 1.34661 -1 2.0192C-1 2.6918 -0.815778 3.41595 -0.384062 3.99877C0.0690014 4.6104 0.777105 5.03278 1.67798 5.03278V3.03278C1.4602 3.03278 1.32932 2.95177 1.22305 2.80831C1.09544 2.63604 1 2.3534 1 2.0192C1 1.68501 1.09544 1.40237 1.22305 1.23009C1.32932 1.08664 1.4602 1.00562 1.67798 1.00562V-0.994376ZM17.7934 30.2783C17.7934 31.6206 16.7052 32.7088 15.3629 32.7088V34.7088C17.8098 34.7088 19.7934 32.7252 19.7934 30.2783H17.7934ZM15.3629 27.8477C16.7052 27.8477 17.7934 28.9359 17.7934 30.2783H19.7934C19.7934 27.8313 17.8098 25.8477 15.3629 25.8477V27.8477ZM12.9323 30.2783C12.9323 28.9359 14.0205 27.8477 15.3629 27.8477V25.8477C12.916 25.8477 10.9323 27.8313 10.9323 30.2783H12.9323ZM15.3629 32.7088C14.0205 32.7088 12.9323 31.6206 12.9323 30.2783H10.9323C10.9323 32.7252 12.916 34.7088 15.3629 34.7088V32.7088ZM31.5156 30.2783C31.5156 31.6206 30.4274 32.7088 29.085 32.7088V34.7088C31.532 34.7088 33.5156 32.7252 33.5156 30.2783H31.5156ZM29.085 27.8477C30.4274 27.8477 31.5156 28.9359 31.5156 30.2783H33.5156C33.5156 27.8313 31.532 25.8477 29.085 25.8477V27.8477ZM26.6545 30.2783C26.6545 28.9359 27.7427 27.8477 29.085 27.8477V25.8477C26.6381 25.8477 24.6545 27.8313 24.6545 30.2783H26.6545ZM29.085 32.7088C27.7427 32.7088 26.6545 31.6206 26.6545 30.2783H24.6545C24.6545 32.7252 26.6381 34.7088 29.085 34.7088V32.7088Z" fill="#2B2B2B" mask="url(#path-1-inside-1_15_92)"/>
</svg>
