<svg width="31" height="31" viewBox="0 0 31 31" fill="none" xmlns="http://www.w3.org/2000/svg">
<path d="M13.02 1.85999C7.192 1.85999 2.48 6.57199 2.48 12.4C2.48 18.228 7.192 22.94 13.02 22.94C15.0998 22.94 17.032 22.3323 18.6642 21.2955L26.2749 28.9051L28.9051 26.2749L21.4045 18.7731C22.7514 17.0029 23.56 14.7998 23.56 12.4C23.56 6.57199 18.848 1.85999 13.02 1.85999ZM13.02 4.33999C17.484 4.33999 21.08 7.93598 21.08 12.4C21.08 16.864 17.484 20.46 13.02 20.46C8.556 20.46 4.96 16.864 4.96 12.4C4.96 7.93598 8.556 4.33999 13.02 4.33999Z" fill="#828282"/>
</svg>
